<svg xmlns="http://www.w3.org/2000/svg" width="1200" height="430" viewBox="0 0 1200 430">
<rect width="100%" height="100%" rx="24" fill="#0b1020"/>
<defs><marker id="arrow" viewBox="0 0 10 10" refX="8" refY="5" markerWidth="5" markerHeight="5" orient="auto-start-reverse"><path d="M 0 0 L 10 5 L 0 10 z" fill="context-stroke"/></marker></defs>
<path d="M400 72V385M800 72V385" stroke="#263449"/>
<text x="200" y="43" fill="#f2f5f9" font-family="Microsoft YaHei UI, sans-serif" font-size="20" font-weight="700" text-anchor="middle">原始坐标系</text><text x="600" y="43" fill="#f2f5f9" font-family="Microsoft YaHei UI, sans-serif" font-size="20" font-weight="700" text-anchor="middle">主动旋转：Rz(90°)</text><text x="1000" y="43" fill="#f2f5f9" font-family="Microsoft YaHei UI, sans-serif" font-size="20" font-weight="700" text-anchor="middle">SLERP：单位球最短路径</text><line x1="205.0" y1="252.0" x2="297.0" y2="272.2" stroke="#ff6b5f" stroke-width="3" marker-end="url(#arrow)"/><text x="309.69637806716617" y="280.0332031747766" fill="#ff6b5f" font-family="Microsoft YaHei UI, sans-serif" font-size="16" font-weight="700" text-anchor="middle">x</text><line x1="205.0" y1="252.0" x2="151.6" y2="283.3" stroke="#47d79b" stroke-width="3" marker-end="url(#arrow)"/><text x="140.42492638873043" y="294.8543534962614" fill="#47d79b" font-family="Microsoft YaHei UI, sans-serif" font-size="16" font-weight="700" text-anchor="middle">y</text><line x1="205.0" y1="252.0" x2="205.0" y2="167.4" stroke="#5b8cff" stroke-width="3" marker-end="url(#arrow)"/><text x="205.0" y="159.36" fill="#5b8cff" font-family="Microsoft YaHei UI, sans-serif" font-size="16" font-weight="700" text-anchor="middle">z</text><circle cx="205.0" cy="252.0" r="4" fill="#f2f5f9"/><line x1="205.0" y1="252.0" x2="275.2" y2="218.9" stroke="#ffad4d" stroke-width="4" marker-end="url(#arrow)"/><text x="200" y="380" fill="#aab7c9" font-family="Microsoft YaHei UI, sans-serif" font-size="16" font-weight="400" text-anchor="middle">p = (0.85, 0.15, 0.65)</text><line x1="602.0" y1="252.0" x2="548.6" y2="283.3" stroke="#ff6b5f" stroke-width="3" marker-end="url(#arrow)"/><text x="537.4249263887305" y="294.8543534962614" fill="#ff6b5f" font-family="Microsoft YaHei UI, sans-serif" font-size="16" font-weight="700" text-anchor="middle">Rx</text><line x1="602.0" y1="252.0" x2="510.0" y2="231.8" stroke="#47d79b" stroke-width="3" marker-end="url(#arrow)"/><text x="497.30362193283383" y="233.96679682522344" fill="#47d79b" font-family="Microsoft YaHei UI, sans-serif" font-size="16" font-weight="700" text-anchor="middle">Ry</text><line x1="602.0" y1="252.0" x2="602.0" y2="167.4" stroke="#5b8cff" stroke-width="3" marker-end="url(#arrow)"/><text x="602.0" y="159.36" fill="#5b8cff" font-family="Microsoft YaHei UI, sans-serif" font-size="16" font-weight="700" text-anchor="middle">Rz</text><circle cx="602.0" cy="252.0" r="4" fill="#f2f5f9"/><line x1="602.0" y1="252.0" x2="542.8" y2="220.5" stroke="#ffad4d" stroke-width="4" marker-end="url(#arrow)"/><text x="600" y="380" fill="#aab7c9" font-family="Microsoft YaHei UI, sans-serif" font-size="16" font-weight="400" text-anchor="middle">Rp = (-0.15, 0.85, 0.65)</text><line x1="1000.0" y1="252.0" x2="1092.0" y2="272.2" stroke="#ff6b5f" stroke-width="3" marker-end="url(#arrow)"/><text x="1104.6963780671663" y="280.0332031747766" fill="#ff6b5f" font-family="Microsoft YaHei UI, sans-serif" font-size="16" font-weight="700" text-anchor="middle">x</text><line x1="1000.0" y1="252.0" x2="946.6" y2="283.3" stroke="#47d79b" stroke-width="3" marker-end="url(#arrow)"/><text x="935.4249263887305" y="294.8543534962614" fill="#47d79b" font-family="Microsoft YaHei UI, sans-serif" font-size="16" font-weight="700" text-anchor="middle">y</text><line x1="1000.0" y1="252.0" x2="1000.0" y2="167.4" stroke="#5b8cff" stroke-width="3" marker-end="url(#arrow)"/><text x="1000.0" y="159.36" fill="#5b8cff" font-family="Microsoft YaHei UI, sans-serif" font-size="16" font-weight="700" text-anchor="middle">z</text><circle cx="1000.0" cy="252.0" r="4" fill="#f2f5f9"/><path d="M 1070.2 218.9 L 1052.5 224.2 L 1031.2 227.7 L 1007.8 229.1 L 983.9 228.3 L 961.0 225.4 L 940.8 220.5 L 924.7 214.1 L 913.7 206.4" fill="none" stroke="#ffad4d" stroke-width="3" stroke-dasharray="7 5"/><circle cx="1070.2" cy="218.9" r="6" fill="#ffad4d"/><circle cx="1052.5" cy="224.2" r="3.5" fill="#ffad4d"/><circle cx="1031.2" cy="227.7" r="3.5" fill="#ffad4d"/><circle cx="1007.8" cy="229.1" r="3.5" fill="#ffad4d"/><circle cx="983.9" cy="228.3" r="3.5" fill="#ffad4d"/><circle cx="961.0" cy="225.4" r="3.5" fill="#ffad4d"/><circle cx="940.8" cy="220.5" r="3.5" fill="#ffad4d"/><circle cx="924.7" cy="214.1" r="3.5" fill="#ffad4d"/><circle cx="913.7" cy="206.4" r="6" fill="#ffad4d"/><text x="1000" y="380" fill="#aab7c9" font-family="Microsoft YaHei UI, sans-serif" font-size="16" font-weight="400" text-anchor="middle">等角速度采样 · 四元数始终保持单位范数</text><text x="24" y="414" fill="#718198" font-family="Microsoft YaHei UI, sans-serif" font-size="14" font-weight="400" text-anchor="start">约定：右手系 · 主动旋转 · 列向量 · q=(w,x,y,z)</text></svg>